<?xml version="1.0" standalone="no"?><!DOCTYPE svg PUBLIC "-//W3C//DTD SVG 1.1//EN" "http://www.w3.org/Graphics/SVG/1.1/DTD/svg11.dtd"><svg t="1556171823858" class="icon" style="" viewBox="0 0 1123 1024" version="1.1" xmlns="http://www.w3.org/2000/svg" p-id="21985" xmlns:xlink="http://www.w3.org/1999/xlink" width="219.3359375" height="200"><defs><style type="text/css"></style></defs><path d="M843.012661 0H280.077709L0.694883 290.401691v132.821994l560.850302 600.776315 560.850301-600.776315v-132.821994z" fill="#FC8614" p-id="21986"></path><path d="M0 423.223685l561.545185 600.776315 561.545185-600.776315z" fill="#F68508" p-id="21987"></path><path d="M0.694883 423.223685l560.850302 4.129593L280.772592 0z" fill="#F59900" p-id="21988"></path><path d="M0.694883 290.401691l560.850302 733.598309L280.772592 0z" fill="#FFA200" p-id="21989"></path><path d="M1123.09037 423.223685l-560.850302 4.129593L843.012661 0z" fill="#F59900" p-id="21990"></path><path d="M1123.09037 290.401691l-560.850302 733.598309L843.012661 0z" fill="#FFA200" p-id="21991"></path><path d="M0.694883 423.223685l560.850302 600.776315L0.694883 290.401691zM1123.09037 423.223685l-560.850302 600.776315 560.850302-733.598309z" fill="#F59900" p-id="21992"></path><path d="M280.772592 0l280.772593 427.353278L842.317777 0z" fill="#F6AE2D" p-id="21993"></path><path d="M103.914846 427.353278L561.545185 0l458.325222 427.353278z" fill="#FCB81D" p-id="21994"></path><path d="M818.929988 314.484363c-18.603021 0-31.766097 1.389767-39.926013 4.129593-7.564302 2.75968-13.063808 6.889272-15.148458 11.713748L608.340617 690.912616H518.184462l-149.320511-359.909882c-2.75968-5.499506-8.259185-9.629098-17.213254-12.388778a115.906547 115.906547 0 0 0-33.751478-4.129593v-32.341858h227.127595v32.341858h-54.359734c-11.693895 0-17.86843 3.454563-17.868429 9.648952a13.123369 13.123369 0 0 0 1.985381 6.869419l119.122864 293.8364 119.122865-289.726661a15.466119 15.466119 0 0 0 1.985381-7.564302c0-8.954069-9.629098-13.083661-28.212265-13.083662h-38.5561v-32.322004h169.293444z" fill="#FFFFFF" p-id="21995"></path></svg>